<svg width="22" height="22" viewBox="0 0 22 22" fill="none" xmlns="http://www.w3.org/2000/svg">
<path fill-rule="evenodd" clip-rule="evenodd" d="M12.4626 19C12.3288 19 12.3198 18.8302 12.4501 18.8035C16.2256 18.0285 19.0374 15.0527 19.0374 11.5C19.0374 7.94724 16.2256 4.9715 12.4501 4.19656C12.3198 4.16981 12.3288 4 12.4626 4C17.1778 4 21 7.35785 21 11.5C21 15.6421 17.1778 19 12.4626 19Z" fill="#695346"/>
<path fill-rule="evenodd" clip-rule="evenodd" d="M8.53742 19C13.2525 19 17.0748 15.6421 17.0748 11.5C17.0748 7.35786 13.2525 4 8.53742 4C3.82233 4 0 7.35786 0 11.5C0 15.6421 3.82233 19 8.53742 19ZM9.50515 6.13528C9.50515 5.90821 9.29561 5.72414 9.03714 5.72414C8.77866 5.72414 8.56913 5.90821 8.56913 6.13528V7.00711C8.18835 7.04531 7.84413 7.13843 7.53648 7.28647C7.12182 7.48201 6.79773 7.76135 6.56423 8.1245C6.33475 8.48366 6.22001 8.90866 6.22001 9.39951C6.22001 9.91031 6.3267 10.3333 6.54007 10.6685C6.75747 11.0037 7.06143 11.2851 7.45194 11.5126C7.84245 11.736 8.29738 11.9415 8.81672 12.1291C9.15087 12.2488 9.41658 12.3745 9.61385 12.5062C9.81514 12.6379 9.95806 12.7876 10.0426 12.9552C10.1312 13.1228 10.1755 13.3203 10.1755 13.5478C10.1755 13.7713 10.1271 13.9708 10.0305 14.1464C9.93793 14.318 9.79703 14.4517 9.60781 14.5474C9.42262 14.6432 9.18911 14.6911 8.9073 14.6911C8.73419 14.6911 8.56309 14.6671 8.394 14.6193C8.22491 14.5714 8.07193 14.4896 7.93505 14.3738C7.79817 14.2541 7.68947 14.0945 7.60895 13.895C7.57953 13.8221 7.55549 13.7422 7.53682 13.6555C7.47641 13.3748 7.22456 13.1407 6.89938 13.1407H6.47667C6.15149 13.1407 5.88275 13.3731 5.91882 13.657C5.95795 13.9649 6.03419 14.2378 6.14755 14.4756C6.32066 14.8348 6.55215 15.1241 6.84202 15.3436C7.13591 15.5591 7.462 15.7147 7.82031 15.8105C8.03227 15.8671 8.24565 15.907 8.46043 15.9302V16.6949C8.46043 16.9205 8.66861 17.1034 8.92542 17.1034C9.18223 17.1034 9.39041 16.9205 9.39041 16.6949V15.9301C9.76589 15.8913 10.1061 15.8055 10.411 15.6728C10.8417 15.4852 11.1759 15.2119 11.4134 14.8527C11.655 14.4936 11.7758 14.0546 11.7758 13.5358C11.7758 13.029 11.6691 12.61 11.4557 12.2788C11.2423 11.9475 10.9424 11.6682 10.5559 11.4407C10.1694 11.2093 9.71449 10.9978 9.19113 10.8062C8.84087 10.6705 8.5651 10.5368 8.3638 10.4051C8.16654 10.2735 8.02563 10.1278 7.94109 9.96818C7.86057 9.80456 7.82031 9.615 7.82031 9.39951C7.82031 9.17603 7.85856 8.9785 7.93505 8.8069C8.01557 8.6353 8.14037 8.49962 8.30946 8.39986C8.48257 8.30009 8.70198 8.25021 8.96769 8.25021C9.15288 8.25021 9.31794 8.28413 9.46288 8.35197C9.61183 8.41981 9.73865 8.52157 9.84332 8.65725C9.948 8.78894 10.0285 8.95056 10.0849 9.14211C10.0985 9.18838 10.1105 9.23627 10.1208 9.28579C10.1794 9.56678 10.433 9.80057 10.7582 9.80057H11.1749C11.5001 9.80057 11.7687 9.56816 11.7313 9.28438C11.6993 9.0416 11.6437 8.8166 11.5644 8.60936C11.4356 8.25819 11.2484 7.96288 11.0028 7.72344C10.7612 7.48401 10.4694 7.30243 10.1271 7.17872C9.93423 7.10587 9.72689 7.0538 9.50515 7.02251V6.13528Z" fill="#695346"/>
</svg>
